<!--?xml version="1.0" standalone="no"?-->
              <svg id="sw-js-blob-svg" viewBox="0 0 100 100" xmlns="http://www.w3.org/2000/svg" version="1.1">
                    <defs> 
                        <linearGradient id="sw-gradient" x1="0" x2="1" y1="1" y2="0">
                            <stop id="stop1" stop-color="rgba(255, 0, 0, 1)" offset="0%"></stop>
                            <stop id="stop2" stop-color="rgba(229, 212, 195, 1)" offset="100%"></stop>
                        </linearGradient>
                    </defs>
                <path fill="url(#sw-gradient)" d="M23.7,-29.6C31.6,-26.9,39.4,-21.1,41.7,-13.6C44.1,-6.1,40.9,3.1,36.5,10.4C32.1,17.7,26.4,23,20.1,27.1C13.8,31.2,6.9,34,-0.7,35C-8.2,35.9,-16.4,34.9,-21.4,30.4C-26.3,25.8,-28,17.7,-29,10.4C-29.9,3.1,-30.2,-3.4,-29.2,-10.4C-28.2,-17.4,-25.9,-25,-20.8,-28.5C-15.8,-32.1,-7.9,-31.7,0,-31.7C7.9,-31.8,15.8,-32.2,23.7,-29.6Z" width="100%" height="100%" transform="translate(50 50)" stroke-width="0" style="transition: all 0.3s ease 0s;"></path>
              </svg>