<!--?xml version="1.0" standalone="no"?-->
              <svg id="sw-js-blob-svg" viewBox="0 0 100 100" xmlns="http://www.w3.org/2000/svg" version="1.1">
                    <defs> 
                        <linearGradient id="sw-gradient" x1="0" x2="1" y1="1" y2="0">
                            <stop id="stop1" stop-color="rgba(255, 0, 0, 1)" offset="0%"></stop>
                            <stop id="stop2" stop-color="rgba(229, 212, 195, 1)" offset="100%"></stop>
                        </linearGradient>
                    </defs>
                <path fill="url(#sw-gradient)" d="M4.4,-13.6C6.4,-6.5,9.1,-6.7,14.9,-5.6C20.7,-4.6,29.4,-2.3,30.3,0.5C31.1,3.2,23.9,6.4,18.3,7.8C12.8,9.2,8.8,8.8,6,11.1C3.2,13.4,1.6,18.5,0,18.6C-1.7,18.6,-3.3,13.6,-6.9,11.8C-10.6,9.9,-16.2,11.2,-17.8,9.8C-19.5,8.4,-17.2,4.2,-14.7,1.4C-12.3,-1.3,-9.6,-2.7,-10.1,-7.8C-10.5,-12.9,-14.1,-21.7,-12.9,-29.3C-11.7,-36.9,-5.9,-43.3,-2.3,-39.2C1.2,-35.2,2.4,-20.8,4.4,-13.6Z" width="100%" height="100%" transform="translate(50 50)" stroke-width="0" style="transition: all 0.3s ease 0s;"></path>
              </svg>